<svg xmlns="http://www.w3.org/2000/svg" xmlns:xlink="http://www.w3.org/1999/xlink" width="1080" zoomAndPan="magnify" viewBox="0 0 810 809.999993" height="1080" preserveAspectRatio="xMidYMid meet" version="1.0"><defs><clipPath id="79765d04f7"><path d="M 130.289062 383 L 163 383 L 163 444 L 130.289062 444 Z M 130.289062 383 " clip-rule="nonzero"/></clipPath><clipPath id="a83b927550"><path d="M 429 135.09375 L 469 135.09375 L 469 166 L 429 166 Z M 429 135.09375 " clip-rule="nonzero"/></clipPath></defs><rect x="-81" width="972" fill="#ffffff" y="-80.999999" height="971.999992" fill-opacity="1"/><rect x="-81" width="972" fill="#0e0e0e" y="-80.999999" height="971.999992" fill-opacity="1"/><path fill="#ffffff" d="M 632.453125 264.425781 L 631.789062 264.828125 C 628.695312 266.722656 626.859375 268.828125 626.289062 271.144531 C 625.40625 273.421875 625.042969 277.886719 625.195312 284.546875 C 625.261719 286.988281 625.355469 289.484375 625.476562 292.035156 L 631.144531 406.5 C 633.292969 434.480469 634.761719 456.300781 635.558594 471.957031 C 636.0625 482.902344 636.316406 489.289062 636.324219 491.117188 C 636.476562 496.136719 636.597656 505.75 636.691406 519.960938 L 636.886719 526.1875 C 636.980469 527.914062 637.125 529.242188 637.316406 530.167969 C 637.417969 531.125 637.769531 531.558594 638.371094 531.472656 C 639.8125 531.53125 644.507812 516.296875 652.464844 485.769531 L 645.367188 326.328125 C 645.523438 318.664062 646.050781 314.839844 646.945312 314.851562 C 647.277344 314.070312 649.21875 316.328125 652.769531 321.621094 C 653.527344 322.242188 654.066406 322.128906 654.382812 321.285156 C 655.078125 320.257812 655.292969 314.351562 655.023438 303.574219 L 632.453125 264.425781 " fill-opacity="1" fill-rule="nonzero"/><path fill="#ffffff" d="M 678.964844 372.34375 L 679.070312 372.019531 C 679.507812 370.847656 679.546875 369.78125 679.191406 368.824219 C 678.519531 367.3125 677.699219 366.398438 676.730469 366.089844 C 675.285156 365.417969 673.316406 366.238281 670.820312 368.550781 C 667.644531 371.925781 664.65625 376.207031 661.851562 381.394531 C 659.53125 385.835938 658.199219 388.554688 657.855469 389.539062 C 657.050781 391.410156 656.328125 393.269531 655.699219 395.117188 C 653.820312 400.753906 652.964844 405.710938 653.136719 409.988281 C 653.308594 414.261719 654.375 417.242188 656.335938 418.933594 C 658.019531 420.304688 660.421875 420.46875 663.542969 419.425781 C 666.652344 418.414062 671.164062 416.023438 677.078125 412.257812 L 679.226562 399.417969 C 673.410156 402.523438 669.5 403.996094 667.496094 403.835938 C 666.429688 403.746094 665.667969 403.324219 665.214844 402.570312 C 664.976562 402.199219 664.792969 401.761719 664.671875 401.253906 C 664.542969 401.066406 664.488281 400.195312 664.503906 398.632812 C 664.835938 395.195312 666.21875 391.339844 668.648438 387.066406 C 670.054688 384.542969 671.5625 381.980469 673.179688 379.382812 L 678.964844 372.34375 " fill-opacity="1" fill-rule="nonzero"/><path fill="#ffffff" d="M 561.859375 494.890625 L 562.550781 494.941406 C 563.738281 495.242188 564.4375 495.542969 564.726562 495.738281 C 565.203125 496.054688 565.742188 496.363281 566.257812 496.796875 C 568.148438 498.382812 569.476562 499.972656 570.265625 501.539062 C 570.832031 502.671875 571.238281 503.914062 571.410156 505.273438 C 571.683594 507.453125 571.59375 509.285156 571.324219 510.773438 C 570.9375 512.898438 570.722656 514.066406 570.664062 514.289062 C 570.09375 516.476562 569.726562 517.839844 569.5 518.367188 C 568.667969 520.308594 567.792969 521.699219 567 522.660156 C 566.761719 522.945312 566.050781 523.738281 564.632812 524.847656 C 564.0625 525.296875 563.410156 525.652344 562.742188 526.003906 C 561.191406 526.8125 559.519531 527.320312 557.730469 527.175781 C 556.332031 527.058594 555.449219 526.511719 554.976562 525.90625 C 554.113281 524.796875 553.527344 523.792969 553.234375 522.855469 C 552.746094 521.296875 552.324219 519.503906 552.097656 517.445312 C 551.941406 516.058594 551.90625 515.15625 551.90625 514.753906 C 551.90625 513.285156 551.972656 512.023438 552.128906 510.964844 C 552.625 507.566406 554.058594 503.679688 556.6875 499.480469 C 558.761719 496.171875 560.578125 494.699219 561.859375 494.890625 M 597.34375 223.796875 L 594.925781 224.484375 C 588.878906 226.6875 585.769531 231.800781 586.355469 239.78125 C 596.625 378.757812 603.902344 480.929688 607.425781 546.355469 L 595.328125 558.84375 C 584.195312 566.574219 573.195312 564.632812 562.324219 553.011719 C 561.703125 551.21875 562.21875 549.257812 563.875 547.128906 C 570.480469 542.484375 577.742188 535.78125 583.042969 525.527344 C 587.699219 516.515625 588.453125 508.089844 587.546875 501.5625 C 585.800781 488.976562 582.375 480.136719 576.714844 476.445312 C 570.367188 472.300781 564.394531 472.226562 559.78125 474.75 C 550.960938 479.570312 545.117188 485.738281 542.46875 493.261719 C 540.523438 498.789062 539.488281 504.636719 539.097656 510.722656 L 539.820312 530.335938 L 540.78125 535.390625 C 540.730469 537.425781 540.234375 538.902344 539.464844 539.945312 C 538.113281 541.78125 534.933594 543.894531 529.742188 546.167969 L 493.027344 560.125 C 488.449219 562.304688 483.964844 565.035156 479.574219 568.3125 L 466.457031 581 C 456.933594 594.78125 443.636719 610.636719 426.742188 628.726562 C 419.460938 636.519531 412.882812 640.574219 406.824219 640.726562 C 393.71875 635.007812 390.777344 616.320312 397.996094 584.667969 C 420.601562 566.015625 432.082031 551.492188 432.273438 541.09375 C 432.378906 535.273438 431.085938 528.242188 428.550781 520 L 416.277344 489.074219 C 416.175781 487.757812 416.773438 486.917969 418.066406 486.546875 L 429.695312 488.433594 C 430.917969 488.324219 431.371094 487.78125 431.0625 486.804688 C 421.613281 472.625 413.328125 462.292969 406.53125 455.484375 C 400.351562 449.292969 396.664062 458.300781 395.140625 482.828125 L 416.996094 525.265625 C 419.832031 533.714844 420.140625 539.308594 417.929688 542.054688 C 416.796875 547.476562 406.792969 556.542969 387.289062 568.222656 C 369.410156 578.925781 355.628906 584.480469 347.128906 587.613281 C 310.886719 600.984375 284.726562 601.664062 267.097656 589.253906 C 258.96875 583.53125 252.300781 575.398438 247.503906 563.742188 C 245.617188 559.148438 245.257812 541.957031 246.871094 511.980469 L 235.511719 516.234375 C 224.28125 572.558594 229.859375 607.140625 252.023438 620.355469 C 268.476562 630.160156 286.082031 633.898438 305.074219 631.3125 C 322.03125 629 346.878906 617.699219 379.605469 597.28125 C 377.808594 617.292969 377.746094 628.203125 379.410156 630.007812 C 380.632812 635.90625 382.703125 640.886719 385.613281 644.953125 C 388.523438 649.015625 392.28125 652.167969 396.878906 654.398438 L 404.414062 657.058594 C 411.746094 658.628906 416.144531 658.777344 417.613281 657.503906 C 422.914062 656.207031 428.894531 651.941406 436.171875 645.378906 C 438.53125 643.25 453.097656 625.503906 479.300781 591.441406 C 481.074219 589.136719 484.523438 586.65625 489.640625 583.996094 L 549.023438 558.007812 C 553.039062 578.015625 565.695312 587.964844 586.132812 583.300781 C 598.707031 580.433594 607.828125 567.980469 615.394531 550.660156 C 616.054688 549.144531 617.828125 544.0625 620.128906 535.113281 L 607.4375 269.722656 C 613.882812 277.550781 616.839844 276.183594 616.117188 265.632812 C 615.953125 263.28125 615.570312 260.769531 614.261719 258.535156 C 605.199219 243.042969 599.273438 231.632812 597.34375 223.796875 Z M 597.34375 223.796875 " fill-opacity="1" fill-rule="nonzero"/><path fill="#ffffff" d="M 558.8125 234.269531 L 559.4375 235.113281 C 562.71875 239.75 564.914062 241.664062 566.027344 240.851562 C 566.824219 240.207031 567.324219 238.734375 567.53125 236.433594 C 567.730469 232.890625 567.601562 230.160156 567.152344 228.242188 C 566.726562 226.109375 566.074219 224.097656 565.199219 222.210938 L 557.488281 206.855469 C 556.757812 205.53125 554.769531 200.738281 551.519531 192.476562 L 549.5 188.414062 C 547.589844 185.210938 545.542969 184.4375 543.359375 186.089844 C 539.90625 188.957031 538.023438 192.519531 537.71875 196.773438 C 537.734375 198.902344 538.523438 201.3125 540.089844 204 C 544.136719 289.691406 547.105469 349.28125 549 382.765625 C 550.535156 410.609375 551.828125 425.367188 552.886719 427.039062 C 553.085938 427.316406 553.347656 427.113281 553.667969 426.425781 C 557.195312 416.605469 559.75 409.03125 561.332031 403.707031 C 563.148438 397.394531 564.304688 391.625 564.800781 386.398438 L 558.515625 290.339844 L 557.527344 266.90625 C 556.921875 250.640625 556.726562 241.4375 556.9375 239.296875 C 557.074219 234.675781 557.699219 233 558.8125 234.269531 " fill-opacity="1" fill-rule="nonzero"/><path fill="#ffffff" d="M 451.089844 311.011719 L 451.792969 311.84375 C 455.507812 316.410156 458.050781 318.316406 459.421875 317.558594 C 460.886719 317.292969 462.289062 313.371094 463.632812 305.792969 C 461.015625 301.777344 455.886719 291.980469 448.246094 276.40625 C 446.582031 273.273438 444.96875 270.613281 443.394531 268.414062 C 440.503906 264.339844 437.898438 263.3125 435.578125 265.335938 C 434.5 265.933594 432.640625 268.625 430 273.414062 C 428.878906 275.707031 428.300781 278.023438 428.261719 280.367188 C 428.183594 283.335938 428.585938 287.613281 429.464844 293.199219 C 434.558594 421.648438 438.113281 500.109375 440.140625 528.582031 C 441.671875 551.695312 442.832031 565.769531 443.628906 570.808594 C 444.441406 578.140625 445.539062 583.1875 446.921875 585.949219 C 447.691406 587.484375 448.738281 586.609375 450.058594 583.324219 C 454.210938 567.339844 458.257812 553.792969 462.199219 542.675781 L 451.089844 311.011719 " fill-opacity="1" fill-rule="nonzero"/><path fill="#ffffff" d="M 565.917969 431.6875 L 562.066406 436.976562 L 547.238281 432.425781 L 533.390625 450.542969 L 555.023438 465.375 L 565.523438 450.789062 L 579.105469 458.300781 L 594.535156 437.390625 L 572.667969 423.421875 L 565.917969 431.6875 " fill-opacity="1" fill-rule="nonzero"/><path fill="#ffffff" d="M 493.105469 612.546875 L 494.25 612.746094 C 501.210938 613.8125 505.820312 615.746094 508.070312 618.542969 C 508.824219 619.230469 509.96875 620.792969 511.5 623.238281 L 519.449219 637.921875 C 521.300781 640.8125 522.613281 642.507812 523.386719 643.003906 C 525.402344 644.898438 528.074219 644.875 531.402344 642.933594 C 531.699219 642.773438 531.996094 642.609375 532.292969 642.445312 C 533.746094 636.203125 534.609375 632.035156 534.886719 629.941406 C 535.226562 627.855469 535.46875 625.761719 535.613281 623.667969 L 535.949219 612.140625 C 535.996094 610.644531 536.296875 609.320312 536.851562 608.167969 C 537.734375 606.75 539.222656 606.515625 541.324219 607.457031 C 542.378906 607.984375 543.292969 608.621094 544.0625 609.371094 L 548.4375 614.1875 C 548.960938 614.597656 549.546875 614.769531 550.199219 614.699219 C 551.074219 614.574219 552.144531 614.007812 553.421875 612.996094 C 554.371094 609.878906 554.988281 607.667969 555.269531 606.367188 C 556.578125 600.679688 556.285156 596.3125 554.390625 593.261719 C 551.714844 588.957031 548.535156 586.539062 544.859375 586.007812 C 539.742188 585.128906 535.476562 586.859375 532.058594 591.199219 C 530.8125 592.816406 529.636719 594.539062 528.527344 596.367188 C 527.804688 605.011719 526.359375 609.769531 524.199219 610.632812 C 523.621094 610.734375 523.074219 610.5 522.558594 609.929688 C 519.390625 605.382812 517.300781 602.804688 516.285156 602.1875 C 514.445312 600.636719 512.296875 599.320312 509.84375 598.238281 C 502.722656 595.214844 497.136719 594.734375 493.089844 596.800781 C 491.417969 597.691406 490.027344 598.902344 488.921875 600.421875 C 487.390625 602.769531 486.6875 604.570312 486.816406 605.820312 C 486.847656 607.253906 487.40625 608.464844 488.492188 609.449219 C 489.332031 610.296875 490.871094 611.328125 493.105469 612.546875 " fill-opacity="1" fill-rule="nonzero"/><path fill="#ffffff" d="M 507.097656 212.476562 L 508.414062 213.449219 C 515.007812 220.335938 518.0625 216.671875 517.574219 202.460938 C 512.484375 193.667969 506.382812 181.96875 499.261719 167.355469 C 493.71875 158.8125 489.632812 162.582031 487 178.667969 C 486.585938 182.601562 486.703125 189.273438 487.347656 198.683594 C 497.21875 309.589844 502.644531 382.566406 503.621094 417.613281 C 503.953125 423.914062 503.292969 428.496094 501.644531 431.355469 C 498.75 434.4375 494.34375 436.609375 488.425781 437.878906 C 481.46875 439.765625 472.40625 436.910156 461.242188 429.308594 C 433.394531 410.96875 357.671875 362.398438 234.070312 283.597656 C 229.839844 280.621094 227.902344 278.488281 228.269531 277.199219 C 226 274.503906 234.980469 268.703125 255.207031 259.792969 C 304.015625 239.492188 338.460938 225.914062 358.550781 219.0625 C 396.488281 205.726562 423.171875 200.386719 438.605469 203.039062 C 452.242188 205.617188 456.40625 213.164062 451.105469 225.675781 C 448.859375 230.082031 445.792969 233.835938 441.90625 236.941406 L 419.917969 251.542969 C 417.019531 253.6875 414.121094 256.570312 411.226562 260.191406 C 405.84375 267.351562 400.417969 276.035156 394.945312 286.234375 C 388.660156 297.671875 386.539062 302.835938 388.582031 301.726562 C 413.367188 275.269531 436.863281 253.046875 459.070312 235.058594 C 461.902344 232.316406 464.363281 229.421875 466.460938 226.371094 C 475.128906 210.492188 473.625 196.308594 461.957031 183.816406 C 455 173.726562 417.324219 179.058594 348.933594 199.808594 C 276.613281 222.121094 231.085938 241.691406 212.347656 258.523438 C 209.019531 261.527344 205.917969 266.714844 203.046875 274.082031 C 202.578125 276.964844 203.503906 279.660156 205.816406 282.167969 C 211.117188 287.980469 217.386719 293.421875 224.617188 298.492188 L 288.515625 344.53125 C 300.152344 353.339844 310.507812 362.042969 319.589844 370.640625 C 341.824219 391.550781 353.796875 410.453125 355.507812 427.355469 C 354.894531 433.828125 351.414062 438.34375 345.066406 440.902344 C 344.273438 441.5 340.824219 442.617188 334.726562 444.246094 C 314.476562 447.875 302.023438 450.492188 297.359375 452.105469 C 287.199219 455.441406 279.855469 458.609375 275.332031 461.605469 C 269.347656 465.191406 263.320312 469.609375 257.253906 474.863281 C 234.722656 495.707031 221.652344 507.324219 218.042969 509.71875 C 210.234375 515.9375 202.289062 519.761719 194.214844 521.1875 C 186.300781 522.054688 181.761719 517.699219 180.605469 508.113281 C 179.78125 487.417969 184.019531 467.851562 193.320312 449.414062 L 183.042969 444.175781 C 172.183594 469.714844 166.679688 488.3125 166.535156 499.972656 C 166.789062 519.613281 171.246094 532.398438 179.898438 538.328125 C 188.476562 545.078125 200.675781 544.925781 216.496094 537.875 C 220.09375 536.480469 225.738281 532.710938 233.4375 526.570312 C 235.988281 524.714844 245.9375 515.105469 263.292969 497.742188 C 268.949219 492.578125 274.898438 488.164062 281.140625 484.488281 C 288.671875 480.414062 294.417969 477.835938 298.375 476.753906 L 337.507812 466.332031 C 341.339844 465.363281 345.734375 462.914062 350.691406 458.988281 C 354.4375 456.402344 358.890625 448.601562 364.054688 435.589844 C 367.078125 428.65625 368.480469 422.863281 368.257812 418.222656 C 368.25 414.585938 367.390625 410.644531 365.683594 406.40625 C 363.484375 401.175781 359.375 393.6875 353.355469 383.9375 C 352.144531 381.414062 351.90625 380.261719 352.632812 380.476562 C 354.605469 380.628906 359.046875 383.28125 365.964844 388.429688 L 431.714844 437.660156 C 443.242188 445.800781 453.445312 451.867188 462.328125 455.863281 C 470.332031 459.507812 478.171875 460.824219 485.847656 459.8125 C 498.542969 457.097656 507.289062 453.089844 512.089844 447.785156 C 518.980469 441.679688 521.890625 426.699219 520.824219 402.839844 L 507.097656 212.476562 " fill-opacity="1" fill-rule="nonzero"/><path fill="#ffffff" d="M 346.589844 255.148438 L 346.550781 257.675781 C 346.378906 269.457031 346.859375 277.964844 347.992188 283.203125 L 356.109375 313.382812 C 356.621094 316.230469 355.929688 318.566406 354.039062 320.394531 C 340.648438 323.265625 323.984375 331.523438 304.050781 345.167969 C 290.078125 354.511719 279.996094 361.796875 273.808594 367.023438 C 271.085938 369.035156 259.851562 378.953125 240.113281 396.777344 C 235.226562 400.941406 230.042969 405.050781 224.554688 409.101562 C 208.722656 420.53125 197.714844 426.136719 191.53125 425.925781 C 183.828125 426.21875 181.171875 417.660156 183.566406 400.246094 C 185.152344 390.632812 187.414062 382.292969 190.347656 375.234375 C 191.816406 371.613281 193.476562 367.996094 195.320312 364.382812 C 206.457031 343.992188 211.429688 334.335938 210.234375 335.410156 C 211.414062 331.855469 210.46875 330.878906 207.390625 332.488281 C 195.605469 340.421875 185.875 352.496094 178.203125 368.714844 C 169.015625 389.179688 164.203125 408.027344 163.773438 425.253906 C 164.296875 437.363281 167.5 445.003906 173.375 448.179688 C 182.011719 453.421875 191.980469 454.167969 203.285156 450.421875 C 211.402344 447.625 219.660156 442.976562 228.0625 436.476562 C 232.257812 433.269531 236.503906 429.726562 240.804688 425.839844 L 244.082031 422.867188 C 267.867188 400.183594 284.511719 385.066406 294.019531 377.511719 C 310.277344 364.347656 322.828125 355.53125 331.671875 351.0625 C 342.183594 345.277344 352.09375 342.425781 361.398438 342.5 C 369.03125 342.125 380.550781 345.039062 395.960938 351.246094 C 398.320312 351.746094 400.054688 351.457031 401.160156 350.375 C 404.507812 345.644531 405.226562 339.199219 403.3125 331.042969 C 382.359375 322.296875 369.519531 310.664062 364.796875 296.140625 C 361.457031 286.171875 359.625 274.519531 359.300781 261.191406 C 370.195312 266.054688 373.765625 265.6875 370.011719 260.089844 L 352.425781 233.730469 C 350.449219 230.820312 349.050781 229.324219 348.226562 229.234375 C 345.378906 230.117188 342.054688 237.664062 338.253906 251.875 C 338.175781 253.148438 338.453125 253.890625 339.082031 254.09375 C 339.199219 254.320312 341.703125 254.675781 346.589844 255.148438 " fill-opacity="1" fill-rule="nonzero"/><path fill="#ffffff" d="M 283.695312 404.082031 L 268.621094 425.226562 L 292 440.285156 L 302.488281 423.414062 L 320.132812 431.65625 L 331.292969 409.476562 L 310.980469 397.453125 L 299.625 412.976562 L 283.695312 404.082031 " fill-opacity="1" fill-rule="nonzero"/><path fill="#ffffff" d="M 338.078125 512.507812 L 330.09375 522.257812 L 322.109375 532.011719 C 329.128906 537.453125 336.152344 542.898438 343.171875 548.34375 C 348.273438 541.027344 353.371094 533.707031 358.46875 526.386719 L 338.078125 512.507812 " fill-opacity="1" fill-rule="nonzero"/><path fill="#ffffff" d="M 459.621094 627.777344 L 459.753906 627.730469 C 462.960938 626.597656 466.09375 625.847656 469.152344 625.484375 C 471.820312 625.292969 473.207031 625.808594 473.3125 627.027344 L 473.324219 627.367188 L 473.050781 629.683594 L 472.488281 631.917969 C 472.015625 633.382812 471.40625 634.808594 470.65625 636.199219 C 469.90625 637.585938 469.074219 638.949219 468.160156 640.292969 L 462.492188 648.292969 L 461.171875 650.320312 C 459.84375 652.515625 459.085938 654.0625 458.894531 654.960938 C 458.125 657.167969 457.902344 659.039062 458.234375 660.574219 C 458.375 661.019531 458.628906 661.332031 458.988281 661.511719 L 459.628906 661.644531 L 461.910156 661.296875 L 463.914062 660.503906 C 465.1875 659.828125 466.363281 658.925781 467.433594 657.804688 L 468.976562 656.015625 C 469.960938 654.726562 470.875 653.332031 471.714844 651.828125 C 472.558594 650.328125 473.347656 648.789062 474.089844 647.222656 L 477.242188 640.515625 C 479.773438 635.6875 481.542969 632.109375 482.554688 629.777344 C 483.199219 628.28125 483.734375 626.785156 484.15625 625.292969 L 484.660156 623.066406 L 484.90625 620.871094 L 484.847656 618.722656 C 484.355469 615.34375 483.21875 613.25 481.4375 612.441406 C 480.507812 611.988281 479.445312 611.761719 478.246094 611.769531 L 476.503906 611.90625 C 475.296875 612.089844 474.054688 612.425781 472.769531 612.914062 C 468.707031 614.519531 465.25 616.886719 462.402344 620.023438 C 461.523438 621.019531 460.816406 622.039062 460.28125 623.070312 L 459.652344 624.609375 C 459.472656 625.246094 459.460938 626.304688 459.621094 627.777344 " fill-opacity="1" fill-rule="nonzero"/><path fill="#ffffff" d="M 304.574219 563.066406 L 304.6875 563.09375 C 305.636719 563.304688 306.277344 563.414062 306.601562 563.417969 C 308.207031 563.371094 309.882812 563.433594 311.628906 563.609375 C 313.804688 563.925781 315.0625 564.171875 315.40625 564.351562 C 317.199219 565.054688 318.144531 565.558594 318.234375 565.855469 C 318.695312 566.289062 318.988281 566.796875 319.113281 567.386719 L 319.140625 568.335938 L 318.78125 569.863281 L 318.128906 571.332031 L 317.210938 572.726562 C 316.511719 573.636719 315.679688 574.472656 314.714844 575.246094 C 311.648438 577.640625 308.195312 579.085938 304.355469 579.585938 C 301.089844 579.847656 298.65625 579.414062 297.054688 578.28125 L 294.902344 576.496094 L 293.328125 574.292969 L 292.28125 571.734375 L 291.695312 568.886719 L 291.515625 565.8125 L 291.679688 562.574219 L 292.136719 559.242188 C 292.535156 556.988281 293.050781 554.75 293.679688 552.535156 C 293.835938 551.703125 294.972656 548.207031 297.085938 542.046875 L 297.386719 540.628906 L 298.359375 534.542969 L 298.699219 533.140625 C 299.15625 531.273438 300.050781 530.003906 301.382812 529.332031 C 302.347656 529.0625 302.925781 528.957031 303.128906 529.027344 L 305.058594 529.457031 L 306.226562 530.671875 L 306.746094 532.550781 L 306.75 534.988281 C 306.578125 536.796875 306.226562 538.824219 305.695312 541.0625 C 304.296875 546.816406 303.503906 550.28125 303.316406 551.460938 L 302.808594 554.808594 L 302.648438 557.910156 L 302.960938 560.640625 L 303.039062 560.886719 C 303.359375 561.585938 303.871094 562.3125 304.574219 563.066406 " fill-opacity="1" fill-rule="nonzero"/><path fill="#ffffff" d="M 383.871094 524.332031 L 383.980469 524.359375 C 384.933594 524.570312 385.570312 524.679688 385.894531 524.683594 C 387.5 524.636719 389.171875 524.699219 390.921875 524.875 C 393.097656 525.1875 394.355469 525.4375 394.699219 525.617188 C 396.492188 526.320312 397.4375 526.824219 397.53125 527.121094 C 397.988281 527.554688 398.28125 528.0625 398.40625 528.652344 L 398.433594 529.601562 C 398.34375 530.300781 398.199219 531 397.996094 531.695312 C 397.957031 532.0625 397.542969 533.078125 396.75 534.742188 C 396.042969 536.0625 395.175781 537.242188 394.144531 538.285156 C 391.921875 540.433594 389.445312 541.609375 386.714844 541.824219 C 378.761719 542.21875 373.714844 539.277344 371.574219 533 L 370.988281 530.152344 L 370.808594 527.078125 L 370.976562 523.839844 L 371.429688 520.507812 C 371.832031 518.25 372.34375 516.015625 372.972656 513.800781 C 373.132812 512.96875 374.265625 509.472656 376.378906 503.3125 L 376.679688 501.894531 L 377.652344 495.808594 L 377.992188 494.40625 C 378.453125 492.535156 379.347656 491.265625 380.675781 490.597656 C 381.640625 490.324219 382.222656 490.222656 382.421875 490.292969 L 384.351562 490.722656 L 385.519531 491.933594 L 386.039062 493.816406 L 386.042969 496.253906 C 385.875 498.0625 385.523438 500.089844 384.988281 502.328125 C 383.589844 508.082031 382.796875 511.546875 382.613281 512.726562 L 382.101562 516.074219 L 381.941406 519.171875 L 382.253906 521.90625 L 382.332031 522.152344 C 382.652344 522.851562 383.164062 523.578125 383.871094 524.332031 " fill-opacity="1" fill-rule="nonzero"/><path fill="#ffffff" d="M 206.679688 483.964844 L 206.789062 484.027344 L 208.492188 484.839844 C 210.539062 485.355469 212.460938 485.984375 214.257812 486.71875 C 216.523438 487.773438 217.789062 488.460938 218.058594 488.78125 C 218.78125 489.308594 219.351562 489.875 219.769531 490.484375 L 220.230469 491.425781 L 220.363281 492.421875 L 220.117188 493.476562 C 219.792969 494.574219 218.734375 496.175781 216.941406 498.273438 C 215.847656 499.421875 214.621094 500.386719 213.273438 501.167969 C 210.566406 502.707031 207.707031 503.21875 204.695312 502.703125 C 200.679688 502 197.339844 500.246094 194.671875 497.4375 L 192.96875 495 L 191.980469 492.296875 L 191.628906 489.378906 L 191.832031 486.292969 L 192.515625 483.089844 C 193.128906 480.917969 193.960938 478.730469 195.007812 476.53125 C 196.054688 474.332031 197.210938 472.1875 198.480469 470.09375 C 198.890625 469.265625 201.03125 466.023438 204.898438 460.367188 L 205.574219 459.078125 L 208.144531 453.394531 L 208.839844 452.078125 C 209.761719 450.320312 210.917969 449.171875 212.300781 448.628906 C 213.5 448.273438 214.734375 448.476562 216.007812 449.234375 L 217.027344 450.480469 L 217.363281 452.179688 L 217.121094 454.253906 C 216.769531 455.761719 216.171875 457.414062 215.332031 459.21875 L 214 461.953125 L 209.527344 470.230469 C 208.574219 471.992188 207.808594 473.59375 207.226562 475.027344 C 206.570312 476.78125 206.386719 479.761719 206.679688 483.964844 " fill-opacity="1" fill-rule="nonzero"/><path fill="#ffffff" d="M 232.480469 368.054688 L 232.59375 368.117188 C 233.511719 368.585938 234.246094 368.886719 234.796875 369.023438 C 235.027344 369.15625 236.90625 369.34375 240.429688 369.578125 C 240.964844 369.640625 241.480469 369.734375 241.984375 369.863281 C 243.214844 370.261719 243.925781 370.570312 244.117188 370.78125 C 245.097656 371.476562 245.8125 372.457031 246.257812 373.71875 C 246.644531 375.164062 246.730469 376.175781 246.507812 376.75 C 245.167969 380.238281 243.199219 382.863281 240.609375 384.628906 C 239.320312 385.5625 237.941406 386.25 236.480469 386.695312 C 235.335938 387.027344 234.148438 387.195312 232.910156 387.191406 C 230.15625 387.339844 226.933594 386.320312 223.246094 384.132812 C 221.75 383.023438 220.902344 382.316406 220.707031 382.019531 L 218.917969 379.597656 L 217.84375 376.890625 L 217.40625 373.949219 L 217.527344 370.824219 L 218.128906 367.566406 L 219.136719 364.226562 C 219.941406 361.976562 220.914062 359.738281 222.050781 357.515625 C 223.1875 355.296875 224.390625 353.160156 225.652344 351.109375 L 230.03125 344.222656 L 230.683594 342.886719 L 233.148438 337.027344 C 233.574219 336.078125 234.042969 335.21875 234.546875 334.453125 C 235.054688 333.691406 235.625 333.082031 236.257812 332.632812 L 237.277344 332.121094 C 238.175781 331.84375 239.03125 331.882812 239.851562 332.242188 C 241.488281 333.292969 241.855469 335.953125 240.960938 340.226562 C 240.828125 341.089844 240.300781 342.664062 239.375 344.953125 C 238.972656 345.902344 238.542969 346.839844 238.089844 347.773438 C 235.734375 352.390625 234.359375 355.175781 233.957031 356.128906 C 233.09375 358.113281 232.398438 359.953125 231.867188 361.65625 C 231.402344 363.050781 231.242188 364.414062 231.386719 365.75 C 231.511719 366.675781 231.878906 367.445312 232.480469 368.054688 " fill-opacity="1" fill-rule="nonzero"/><path fill="#ffffff" d="M 170.671875 304.65625 L 170.78125 304.71875 C 171.644531 305.199219 172.335938 305.511719 172.863281 305.660156 C 173.078125 305.800781 174.875 306.039062 178.253906 306.378906 C 178.761719 306.457031 179.253906 306.566406 179.734375 306.703125 C 180.902344 307.128906 181.574219 307.449219 181.75 307.660156 C 182.671875 308.359375 183.320312 309.320312 183.707031 310.546875 C 184.03125 311.949219 184.078125 312.921875 183.847656 313.46875 C 183.074219 315.796875 181.40625 318.03125 178.851562 320.164062 C 176.285156 322.125 173.640625 323.085938 170.917969 323.042969 C 169.433594 323.039062 167.957031 322.808594 166.480469 322.359375 C 165.746094 322.136719 165.03125 321.867188 164.332031 321.550781 C 162.628906 320.6875 161.640625 320.121094 161.371094 319.851562 C 159.914062 318.703125 159.09375 317.976562 158.910156 317.671875 L 157.273438 315.289062 L 156.332031 312.652344 L 156.007812 309.816406 L 156.226562 306.820312 L 156.914062 303.710938 L 157.988281 300.542969 C 158.835938 298.40625 159.84375 296.292969 161.007812 294.199219 C 162.175781 292.105469 163.398438 290.09375 164.679688 288.164062 L 169.101562 281.710938 L 169.765625 280.464844 L 172.300781 274.96875 C 172.738281 274.078125 173.207031 273.273438 173.710938 272.554688 C 175.5 270.300781 177.238281 269.625 178.929688 270.523438 C 180.464844 271.585938 180.730469 274.15625 179.730469 278.226562 C 179.574219 279.046875 179.015625 280.542969 178.054688 282.707031 C 177.636719 283.605469 177.191406 284.496094 176.726562 285.375 C 174.3125 289.726562 172.898438 292.355469 172.484375 293.257812 C 171.589844 295.132812 170.859375 296.878906 170.296875 298.496094 C 169.800781 299.820312 169.601562 301.121094 169.699219 302.40625 C 169.789062 303.300781 170.113281 304.054688 170.671875 304.65625 " fill-opacity="1" fill-rule="nonzero"/><path fill="#ffffff" d="M 219.796875 228.660156 L 219.902344 228.726562 C 220.71875 229.230469 221.382812 229.570312 221.886719 229.738281 C 222.089844 229.878906 223.828125 230.195312 227.097656 230.675781 L 228.527344 231.058594 C 229.640625 231.527344 230.28125 231.863281 230.445312 232.078125 C 231.308594 232.800781 231.898438 233.765625 232.21875 234.976562 C 232.472656 236.355469 232.476562 237.304688 232.226562 237.824219 C 230.714844 240.972656 228.683594 243.273438 226.132812 244.726562 C 224.859375 245.5 223.527344 246.039062 222.128906 246.34375 C 220.960938 246.574219 219.8125 246.636719 218.675781 246.527344 C 215.558594 246.195312 212.726562 245.0625 210.1875 243.125 C 208.746094 241.894531 207.941406 241.117188 207.773438 240.796875 L 206.285156 238.40625 L 205.484375 235.800781 L 205.296875 233.023438 L 205.644531 230.117188 L 206.453125 227.125 L 207.640625 224.089844 C 208.5625 222.050781 209.636719 220.035156 210.863281 218.050781 C 212.089844 216.066406 213.371094 214.164062 214.703125 212.34375 C 215.671875 211 217.320312 208.847656 219.652344 205.886719 L 226.160156 196.925781 C 227.070312 195.574219 228.136719 195.203125 229.359375 195.820312 C 230.808594 196.921875 230.953125 199.429688 229.796875 203.347656 C 229.605469 204.140625 228.996094 205.570312 227.964844 207.632812 C 227.515625 208.488281 227.046875 209.335938 226.554688 210.167969 L 222.070312 217.648438 C 221.117188 219.433594 220.328125 221.101562 219.707031 222.648438 C 219.167969 223.914062 218.917969 225.171875 218.953125 226.425781 C 219 227.304688 219.28125 228.046875 219.796875 228.660156 " fill-opacity="1" fill-rule="nonzero"/><path fill="#ffffff" d="M 397.660156 243.449219 L 397.773438 243.507812 C 398.691406 243.976562 399.425781 244.28125 399.976562 244.417969 C 400.207031 244.550781 402.082031 244.738281 405.609375 244.972656 C 406.140625 245.035156 406.660156 245.128906 407.164062 245.257812 C 408.394531 245.65625 409.105469 245.964844 409.296875 246.175781 C 410.277344 246.871094 410.992188 247.851562 411.433594 249.113281 C 411.824219 250.558594 411.910156 251.570312 411.6875 252.144531 C 410.347656 255.632812 408.378906 258.257812 405.789062 260.019531 C 404.5 260.957031 403.121094 261.644531 401.660156 262.089844 C 400.515625 262.421875 399.328125 262.585938 398.089844 262.585938 C 395.335938 262.734375 392.113281 261.714844 388.425781 259.527344 C 386.929688 258.417969 386.082031 257.710938 385.886719 257.414062 L 384.097656 254.992188 L 383.023438 252.285156 L 382.585938 249.34375 L 382.707031 246.21875 L 383.308594 242.960938 L 384.3125 239.621094 C 385.121094 237.367188 386.089844 235.132812 387.230469 232.910156 C 388.367188 230.691406 389.570312 228.554688 390.832031 226.503906 C 391.746094 224.988281 393.320312 222.550781 395.550781 219.195312 C 398.765625 213.796875 400.835938 210.410156 401.753906 209.039062 C 402.699219 207.507812 403.792969 207.039062 405.03125 207.636719 C 406.667969 208.6875 407.035156 211.347656 406.140625 215.621094 C 406.007812 216.480469 405.480469 218.054688 404.554688 220.34375 C 404.152344 221.296875 403.722656 222.234375 403.269531 223.164062 C 400.914062 227.785156 399.539062 230.570312 399.136719 231.523438 C 398.273438 233.507812 397.578125 235.347656 397.046875 237.050781 C 396.582031 238.445312 396.421875 239.808594 396.566406 241.140625 C 396.691406 242.070312 397.054688 242.839844 397.660156 243.449219 " fill-opacity="1" fill-rule="nonzero"/><path fill="#ffffff" d="M 473.617188 266.8125 L 473.730469 266.871094 C 474.644531 267.339844 475.378906 267.640625 475.929688 267.777344 C 476.160156 267.914062 478.039062 268.097656 481.566406 268.332031 C 482.097656 268.394531 482.617188 268.488281 483.121094 268.617188 C 484.351562 269.015625 485.058594 269.324219 485.253906 269.539062 C 486.234375 270.234375 486.945312 271.210938 487.390625 272.472656 C 487.78125 273.917969 487.863281 274.929688 487.640625 275.507812 C 486.300781 278.992188 484.335938 281.617188 481.742188 283.382812 C 480.453125 284.316406 479.078125 285.003906 477.617188 285.449219 C 476.472656 285.78125 475.28125 285.949219 474.042969 285.945312 C 471.292969 286.09375 468.070312 285.074219 464.378906 282.886719 C 462.882812 281.777344 462.039062 281.070312 461.84375 280.773438 L 460.054688 278.351562 L 458.980469 275.644531 L 458.539062 272.703125 L 458.660156 269.578125 L 459.261719 266.320312 L 460.269531 262.980469 C 461.074219 260.730469 462.046875 258.492188 463.183594 256.273438 C 464.324219 254.050781 465.523438 251.914062 466.789062 249.863281 C 467.703125 248.347656 469.273438 245.910156 471.503906 242.554688 C 474.722656 237.15625 476.789062 233.773438 477.710938 232.398438 C 478.652344 230.867188 479.746094 230.402344 480.984375 230.996094 C 482.621094 232.046875 482.992188 234.707031 482.09375 238.984375 C 481.960938 239.84375 481.433594 241.417969 480.511719 243.707031 C 480.109375 244.65625 479.679688 245.597656 479.226562 246.527344 C 476.871094 251.144531 475.492188 253.929688 475.089844 254.882812 C 474.230469 256.867188 473.53125 258.710938 473.003906 260.414062 C 472.535156 261.804688 472.375 263.167969 472.523438 264.503906 C 472.648438 265.433594 473.011719 266.203125 473.617188 266.8125 " fill-opacity="1" fill-rule="nonzero"/><path fill="#ffffff" d="M 485.324219 389.03125 L 485.441406 389.089844 C 486.355469 389.558594 487.089844 389.863281 487.640625 390 C 487.871094 390.132812 489.75 390.316406 493.277344 390.554688 C 493.808594 390.617188 494.324219 390.710938 494.832031 390.835938 C 496.058594 391.238281 496.769531 391.546875 496.960938 391.757812 C 497.941406 392.453125 498.65625 393.433594 499.101562 394.695312 C 499.488281 396.140625 499.574219 397.152344 499.351562 397.726562 C 498.011719 401.214844 496.046875 403.839844 493.453125 405.601562 C 492.164062 406.535156 490.789062 407.226562 489.328125 407.671875 C 488.183594 408.003906 486.992188 408.167969 485.753906 408.164062 C 483 408.316406 479.78125 407.296875 476.089844 405.109375 C 474.59375 403.996094 473.746094 403.292969 473.550781 402.992188 L 471.765625 400.574219 L 470.6875 397.867188 L 470.25 394.925781 L 470.371094 391.796875 L 470.972656 388.539062 L 471.980469 385.203125 C 472.785156 382.949219 473.757812 380.714844 474.894531 378.492188 C 476.03125 376.273438 477.234375 374.136719 478.496094 372.082031 L 482.875 365.199219 L 483.53125 363.863281 L 485.992188 358 C 486.421875 357.050781 486.886719 356.195312 487.394531 355.429688 C 487.898438 354.667969 488.46875 354.058594 489.105469 353.605469 L 490.121094 353.097656 C 491.019531 352.820312 491.878906 352.859375 492.695312 353.21875 C 494.332031 354.265625 494.703125 356.929688 493.804688 361.203125 C 493.671875 362.0625 493.144531 363.636719 492.222656 365.925781 C 492.097656 366.429688 490.507812 369.6875 487.453125 375.695312 C 486.378906 378.046875 485.769531 379.472656 485.632812 379.972656 C 485.019531 381.769531 484.914062 384.789062 485.324219 389.03125 " fill-opacity="1" fill-rule="nonzero"/><path fill="#ffffff" d="M 417.851562 368.066406 L 417.964844 368.128906 C 418.878906 368.597656 419.613281 368.898438 420.164062 369.035156 C 420.394531 369.171875 422.273438 369.355469 425.800781 369.589844 C 426.332031 369.652344 426.851562 369.746094 427.355469 369.875 C 428.585938 370.273438 429.292969 370.582031 429.488281 370.796875 C 430.46875 371.488281 431.179688 372.46875 431.625 373.730469 C 432.015625 375.175781 432.097656 376.1875 431.875 376.765625 C 430.535156 380.25 428.570312 382.875 425.976562 384.640625 C 424.6875 385.574219 423.3125 386.261719 421.851562 386.707031 C 420.707031 387.039062 419.515625 387.207031 418.277344 387.203125 C 415.527344 387.351562 412.304688 386.332031 408.613281 384.144531 C 407.117188 383.035156 406.273438 382.328125 406.078125 382.03125 L 404.289062 379.609375 L 403.210938 376.902344 L 402.773438 373.960938 L 402.894531 370.835938 L 403.496094 367.578125 L 404.503906 364.238281 C 405.308594 361.988281 406.28125 359.75 407.417969 357.53125 C 408.558594 355.308594 409.757812 353.171875 411.023438 351.121094 L 415.398438 344.234375 L 416.054688 342.898438 L 418.515625 337.039062 C 418.945312 336.089844 419.410156 335.230469 419.917969 334.46875 C 420.421875 333.703125 420.992188 333.09375 421.628906 332.644531 L 422.648438 332.132812 C 423.542969 331.855469 424.402344 331.894531 425.21875 332.253906 C 426.855469 333.304688 427.226562 335.964844 426.328125 340.238281 C 426.195312 341.101562 425.667969 342.675781 424.746094 344.964844 C 424.34375 345.914062 423.914062 346.851562 423.460938 347.785156 C 421.105469 352.402344 419.726562 355.1875 419.324219 356.140625 C 418.464844 358.125 417.765625 359.964844 417.238281 361.667969 C 416.769531 363.0625 416.609375 364.425781 416.757812 365.761719 C 416.882812 366.691406 417.246094 367.457031 417.851562 368.066406 " fill-opacity="1" fill-rule="nonzero"/><path fill="#ffffff" d="M 527.054688 269.875 L 527.167969 269.933594 C 528.085938 270.402344 528.820312 270.703125 529.371094 270.839844 C 529.601562 270.976562 531.476562 271.160156 535.003906 271.394531 C 535.535156 271.457031 536.054688 271.550781 536.558594 271.679688 C 537.789062 272.082031 538.5 272.386719 538.691406 272.601562 C 539.671875 273.296875 540.386719 274.273438 540.828125 275.535156 C 541.21875 276.984375 541.304688 277.992188 541.082031 278.570312 C 539.742188 282.054688 537.773438 284.679688 535.183594 286.445312 C 533.894531 287.378906 532.515625 288.066406 531.054688 288.511719 C 529.910156 288.847656 528.722656 289.011719 527.484375 289.007812 C 524.730469 289.15625 521.507812 288.136719 517.820312 285.953125 C 516.324219 284.839844 515.476562 284.136719 515.28125 283.835938 L 513.492188 281.417969 L 512.417969 278.710938 L 511.980469 275.765625 L 512.101562 272.640625 L 512.703125 269.382812 L 513.707031 266.042969 C 514.515625 263.792969 515.488281 261.554688 516.625 259.335938 C 517.761719 257.113281 518.964844 254.976562 520.226562 252.925781 C 521.140625 251.410156 522.714844 248.976562 524.945312 245.617188 C 528.160156 240.21875 530.230469 236.835938 531.148438 235.460938 C 532.09375 233.929688 533.1875 233.464844 534.425781 234.058594 C 536.0625 235.109375 536.429688 237.769531 535.535156 242.046875 C 535.402344 242.90625 534.875 244.480469 533.949219 246.769531 C 533.546875 247.71875 533.117188 248.660156 532.664062 249.589844 C 530.308594 254.207031 528.933594 256.992188 528.53125 257.945312 C 527.667969 259.929688 526.972656 261.773438 526.441406 263.476562 C 525.976562 264.871094 525.816406 266.234375 525.960938 267.566406 C 526.085938 268.496094 526.449219 269.265625 527.054688 269.875 " fill-opacity="1" fill-rule="nonzero"/><path fill="#ffffff" d="M 274.019531 285.449219 C 281.335938 285.464844 286.421875 286.578125 289.28125 288.792969 C 291.027344 290.046875 292.707031 291.699219 294.328125 293.761719 L 303.546875 306.386719 C 304.878906 308.125 306.179688 309.601562 307.445312 310.808594 C 309.511719 312.90625 311.675781 313.636719 313.941406 313.003906 C 315.128906 312.640625 316.582031 311.78125 318.296875 310.429688 C 318.890625 304.386719 319.1875 299.464844 319.1875 295.65625 C 319.273438 292.558594 318.785156 286.988281 317.726562 278.953125 C 317.558594 277.433594 317.683594 276.019531 318.105469 274.71875 C 318.976562 273.148438 320.441406 272.707031 322.496094 273.382812 C 323.367188 273.617188 324.410156 274.148438 325.625 274.96875 L 330.777344 279.265625 C 331.53125 279.683594 332.269531 279.734375 332.996094 279.425781 C 333.726562 279.132812 334.625 278.4375 335.699219 277.34375 C 336.40625 273.0625 336.769531 269.8125 336.792969 267.59375 C 337 262.074219 335.238281 257.695312 331.511719 254.457031 C 327.8125 251.320312 323.636719 250.3125 318.980469 251.433594 C 316.6875 252.0625 314.761719 253.199219 313.210938 254.839844 C 312.015625 256 310.707031 258.027344 309.277344 260.925781 L 307.90625 263.890625 C 308.074219 269.511719 307.953125 273.265625 307.550781 275.152344 C 307.179688 277.230469 306.542969 278.523438 305.628906 279.03125 C 305.023438 279.289062 304.390625 279.144531 303.734375 278.59375 C 299.855469 274.402344 297.351562 272.0625 296.226562 271.578125 C 294.125 270.253906 291.746094 269.214844 289.085938 268.457031 C 281.601562 266.324219 275.757812 266.675781 271.558594 269.519531 C 267.921875 272.851562 266.28125 276.171875 266.636719 279.476562 C 266.875 280.933594 267.617188 282.09375 268.863281 282.945312 C 269.84375 283.691406 271.5625 284.527344 274.019531 285.449219 " fill-opacity="1" fill-rule="nonzero"/><path fill="#ffffff" d="M 360.632812 656.019531 L 360.773438 656.03125 C 361.523438 656.097656 362.191406 656.117188 362.785156 656.082031 C 364.578125 655.773438 366.351562 655.582031 368.113281 655.503906 C 369.546875 655.449219 370.855469 655.503906 372.03125 655.664062 C 374.597656 655.933594 376.179688 656.925781 376.78125 658.632812 L 376.871094 659.34375 L 376.699219 661.167969 L 376.148438 662.972656 L 375.253906 664.730469 C 374.546875 665.886719 373.667969 666.976562 372.625 667.996094 L 370.972656 669.457031 C 369.800781 670.386719 368.542969 671.195312 367.207031 671.890625 C 365.871094 672.582031 364.507812 673.117188 363.117188 673.503906 C 359.914062 674.34375 357.214844 674.277344 355.019531 673.296875 L 352.464844 671.738281 L 350.460938 669.644531 L 348.953125 667.101562 L 347.890625 664.175781 L 347.226562 660.945312 L 346.902344 657.496094 L 346.867188 653.894531 C 346.941406 651.441406 347.140625 648.996094 347.464844 646.550781 C 347.503906 645.644531 348.164062 641.769531 349.445312 634.914062 L 349.546875 633.367188 L 349.636719 626.773438 L 349.777344 625.234375 C 349.902344 624.238281 350.140625 623.355469 350.488281 622.585938 L 351.136719 621.558594 L 352.03125 620.785156 C 352.738281 620.371094 353.609375 620.152344 354.640625 620.128906 L 356.460938 620.601562 L 357.660156 621.921875 L 358.347656 623.972656 L 358.625 626.613281 L 358.59375 629.722656 C 358.582031 630.707031 358.285156 634.320312 357.707031 640.558594 C 357.492188 643.074219 357.421875 645.46875 357.492188 647.746094 L 357.808594 650.941406 L 358.546875 653.699219 C 358.800781 654.300781 359.496094 655.074219 360.632812 656.019531 " fill-opacity="1" fill-rule="nonzero"/><g clip-path="url(#79765d04f7)"><path fill="#ffffff" d="M 145.328125 404.441406 L 145.210938 404.359375 C 144.257812 403.730469 143.488281 403.308594 142.898438 403.089844 C 142.664062 402.914062 140.617188 402.480469 136.765625 401.789062 L 135.089844 401.285156 C 133.785156 400.691406 133.042969 400.269531 132.855469 400.007812 C 131.863281 399.125 131.199219 397.960938 130.863281 396.515625 C 130.613281 394.875 130.644531 393.753906 130.960938 393.148438 C 132.058594 390.539062 134.167969 388.117188 137.296875 385.890625 C 140.34375 383.855469 143.542969 382.992188 146.894531 383.296875 C 150.679688 383.726562 154.09375 385.164062 157.136719 387.609375 C 158.851562 389.152344 159.808594 390.121094 160 390.519531 L 161.671875 393.402344 L 162.519531 396.515625 L 162.640625 399.804688 L 162.125 403.230469 L 161.0625 406.742188 L 159.546875 410.292969 C 158.382812 412.671875 157.039062 415.015625 155.511719 417.316406 C 153.988281 419.621094 152.402344 421.828125 150.761719 423.929688 L 145.125 430.929688 C 144.542969 431.789062 143.980469 432.71875 143.429688 433.726562 L 140.941406 438.242188 C 140.375 439.21875 139.78125 440.097656 139.15625 440.886719 C 137.101562 443.410156 134.988281 444.097656 132.820312 442.949219 C 131.148438 441.589844 131.070312 438.617188 132.578125 434.023438 C 132.832031 433.09375 133.605469 431.425781 134.902344 429.019531 C 135.464844 428.023438 136.050781 427.042969 136.664062 426.074219 C 139.824219 421.28125 141.679688 418.382812 142.238281 417.382812 C 143.433594 415.308594 144.425781 413.367188 145.21875 411.554688 C 145.902344 410.078125 146.246094 408.597656 146.25 407.113281 C 146.226562 406.074219 145.917969 405.183594 145.328125 404.441406 " fill-opacity="1" fill-rule="nonzero"/></g><path fill="#ffffff" d="M 282 183.542969 L 279.8125 184.394531 C 264.664062 190.042969 256.804688 194.507812 256.226562 197.789062 C 254.28125 205.945312 253.832031 211.949219 254.878906 215.796875 C 255.921875 218.523438 258.542969 219.3125 262.738281 218.171875 C 264.472656 217.449219 265.488281 216.488281 265.789062 215.285156 C 266.039062 215.140625 266.15625 213.328125 266.148438 209.855469 C 266.59375 207.832031 267.0625 206.558594 267.546875 206.03125 C 270.121094 202.652344 273.363281 200.039062 277.269531 198.195312 C 279.988281 196.496094 287.542969 193.414062 299.933594 188.949219 C 304.578125 187.199219 322.875 181.324219 354.824219 171.335938 C 364.902344 167.972656 371.398438 165.667969 374.3125 164.410156 C 387.65625 158.824219 395.457031 153.929688 397.707031 149.730469 C 399.203125 146.90625 395.902344 146.707031 387.804688 149.144531 C 384.320312 150.152344 378.539062 152.097656 370.453125 154.984375 L 282 183.542969 " fill-opacity="1" fill-rule="nonzero"/><path fill="#ffffff" d="M 272.8125 517.597656 L 271.855469 518.152344 C 268.320312 520.128906 265.609375 522.21875 263.726562 524.417969 C 260.789062 528.234375 259.328125 531.25 259.34375 533.46875 C 259.265625 535.285156 260.363281 536.039062 262.632812 535.730469 C 264.964844 535.089844 266.710938 534.429688 267.875 533.753906 L 272.980469 530.984375 C 276.734375 528.777344 280.628906 526.332031 284.664062 523.644531 C 285.023438 523.484375 292.300781 518.507812 306.5 508.722656 C 308.667969 507.25 311.222656 505.648438 314.160156 503.921875 C 315.539062 503.003906 316.359375 502.425781 316.617188 502.183594 C 320.242188 499.1875 322.242188 495.734375 322.621094 491.820312 C 322.4375 488.851562 319.46875 488.921875 313.71875 492.023438 C 308.761719 494.621094 300.453125 499.941406 288.792969 507.992188 L 272.8125 517.597656 " fill-opacity="1" fill-rule="nonzero"/><path fill="#ffffff" d="M 387.910156 425.609375 L 387.976562 425.609375 C 389.234375 425.929688 389.589844 426.226562 390.070312 427.4375 C 390.550781 428.648438 390.65625 428.816406 390.621094 430.414062 C 390.609375 430.824219 390.449219 432.925781 390.371094 433.425781 C 390.292969 433.925781 390.472656 432.582031 390.355469 433.46875 C 390.234375 434.355469 390.082031 435.050781 389.648438 435.726562 C 389.074219 436.625 388.203125 437.15625 387.066406 437.121094 C 386.210938 437.097656 385.625 436.832031 385.242188 436.621094 C 384.914062 436.441406 384.59375 436.140625 384.289062 435.652344 C 384.089844 435.332031 383.875 434.753906 383.746094 433.890625 C 383.582031 432.78125 383.59375 431.871094 383.660156 431.164062 C 383.832031 429.359375 384.261719 428.007812 384.976562 427.109375 C 385.773438 426.113281 386.75 425.609375 387.910156 425.609375 M 389.667969 417.625 L 389.109375 417.648438 C 382.992188 419.105469 378.769531 422.363281 376.625 427.503906 C 375.902344 429.230469 375.972656 430.484375 376.101562 432.070312 C 376.230469 433.660156 377.785156 435.210938 379.453125 439.703125 C 379.742188 440.476562 380.140625 441.339844 380.214844 441.929688 C 380.359375 443.085938 378.996094 443.941406 376.003906 447.554688 C 374.089844 449.867188 371.660156 452.1875 371.660156 452.1875 C 361.769531 461.421875 355.578125 466.578125 352.023438 469.648438 C 345.828125 475.011719 341.714844 477.878906 339.578125 478.125 C 336.574219 482.035156 334.535156 485.316406 333.515625 488 C 332.613281 490.386719 332.140625 491.8125 332.179688 492.25 C 332.285156 493.460938 332.726562 493.980469 333.371094 493.882812 C 337.09375 493.328125 346.582031 486.253906 362.046875 472.839844 C 377.859375 459.125 387.085938 450.035156 389.507812 445.320312 C 394.148438 446.699219 396.8125 446.476562 397.925781 444.929688 C 398.949219 443.5 399.679688 441.546875 399.386719 438.789062 C 399.289062 437.859375 399.175781 437.191406 398.574219 436.5625 C 397.601562 435.546875 396.371094 435.074219 395.320312 435.078125 C 396.742188 429.757812 395.847656 425.503906 394.65625 421.738281 C 393.882812 419.296875 392.355469 417.886719 389.667969 417.625 Z M 389.667969 417.625 " fill-opacity="1" fill-rule="nonzero"/><path fill="#ffffff" d="M 387.910156 425.609375 L 387.976562 425.609375 C 389.234375 425.929688 389.589844 426.226562 390.070312 427.4375 C 390.550781 428.648438 390.65625 428.816406 390.621094 430.414062 C 390.609375 430.824219 390.449219 432.925781 390.371094 433.425781 C 390.292969 433.925781 390.472656 432.582031 390.355469 433.46875 C 390.234375 434.355469 390.082031 435.050781 389.648438 435.726562 C 389.074219 436.625 388.203125 437.15625 387.066406 437.121094 C 386.210938 437.097656 385.625 436.832031 385.242188 436.621094 C 384.914062 436.441406 384.59375 436.140625 384.289062 435.652344 C 384.089844 435.332031 383.875 434.753906 383.746094 433.890625 C 383.582031 432.78125 383.59375 431.871094 383.660156 431.164062 C 383.832031 429.359375 384.261719 428.007812 384.976562 427.109375 C 385.773438 426.113281 386.75 425.609375 387.910156 425.609375 M 389.667969 417.625 L 389.109375 417.648438 C 382.992188 419.105469 378.769531 422.363281 376.625 427.503906 C 375.902344 429.230469 375.972656 430.484375 376.101562 432.070312 C 376.230469 433.660156 377.785156 435.210938 379.453125 439.703125 C 379.742188 440.476562 380.140625 441.339844 380.214844 441.929688 C 380.359375 443.085938 378.996094 443.941406 376.003906 447.554688 C 374.089844 449.867188 371.660156 452.1875 371.660156 452.1875 C 361.769531 461.421875 355.578125 466.578125 352.023438 469.648438 C 345.828125 475.011719 341.714844 477.878906 339.578125 478.125 C 336.574219 482.035156 334.535156 485.316406 333.515625 488 C 332.613281 490.386719 332.140625 491.8125 332.179688 492.25 C 332.285156 493.460938 332.726562 493.980469 333.371094 493.882812 C 337.09375 493.328125 346.582031 486.253906 362.046875 472.839844 C 377.859375 459.125 387.085938 450.035156 389.507812 445.320312 C 394.148438 446.699219 396.8125 446.476562 397.925781 444.929688 C 398.949219 443.5 399.679688 441.546875 399.386719 438.789062 C 399.289062 437.859375 399.175781 437.191406 398.574219 436.5625 C 397.601562 435.546875 396.371094 435.074219 395.320312 435.078125 C 396.742188 429.757812 395.847656 425.503906 394.65625 421.738281 C 393.882812 419.296875 392.355469 417.886719 389.667969 417.625 Z M 389.667969 417.625 " fill-opacity="1" fill-rule="nonzero"/><path fill="#ffffff" d="M 576.539062 315.9375 L 576.601562 315.9375 C 577.859375 316.257812 578.21875 316.558594 578.699219 317.769531 C 579.175781 318.976562 579.285156 319.144531 579.246094 320.742188 C 579.238281 321.152344 579.078125 323.257812 579 323.757812 C 578.921875 324.253906 579.097656 322.914062 578.980469 323.800781 C 578.863281 324.6875 578.707031 325.382812 578.273438 326.058594 C 577.699219 326.957031 576.828125 327.488281 575.691406 327.453125 C 574.835938 327.425781 574.25 327.160156 573.867188 326.953125 C 573.542969 326.773438 573.21875 326.472656 572.914062 325.984375 C 572.714844 325.664062 572.5 325.085938 572.371094 324.222656 C 572.210938 323.113281 572.222656 322.203125 572.289062 321.496094 C 572.460938 319.691406 572.886719 318.339844 573.605469 317.441406 C 574.398438 316.441406 575.375 315.941406 576.539062 315.9375 M 578.292969 307.957031 L 577.734375 307.980469 C 571.617188 309.433594 567.394531 312.695312 565.25 317.835938 C 564.527344 319.5625 564.597656 320.816406 564.730469 322.402344 C 564.859375 323.988281 566.414062 325.542969 568.078125 330.03125 C 568.367188 330.808594 568.765625 331.671875 568.839844 332.257812 C 568.988281 333.417969 567.625 334.273438 564.628906 337.886719 C 562.71875 340.195312 560.285156 342.519531 560.285156 342.519531 C 550.394531 351.753906 544.203125 356.90625 540.652344 359.980469 C 534.453125 365.34375 530.339844 368.207031 528.203125 368.457031 C 525.203125 372.363281 523.160156 375.648438 522.144531 378.332031 C 521.238281 380.71875 520.765625 382.144531 520.804688 382.578125 C 520.914062 383.792969 521.351562 384.3125 521.996094 384.214844 C 525.71875 383.660156 535.207031 376.585938 550.671875 363.171875 C 566.484375 349.457031 575.710938 340.367188 578.136719 335.648438 C 582.773438 337.027344 585.441406 336.808594 586.550781 335.257812 C 587.574219 333.832031 588.304688 331.878906 588.011719 329.117188 C 587.914062 328.191406 587.800781 327.523438 587.199219 326.894531 C 586.226562 325.878906 584.996094 325.40625 583.945312 325.410156 C 585.367188 320.085938 584.476562 315.835938 583.28125 312.070312 C 582.507812 309.628906 580.980469 308.21875 578.292969 307.957031 Z M 578.292969 307.957031 " fill-opacity="1" fill-rule="nonzero"/><path fill="#ffffff" d="M 204.941406 298.519531 L 205.011719 298.523438 C 206.414062 298.878906 206.8125 299.210938 207.34375 300.558594 C 207.878906 301.90625 207.996094 302.089844 207.953125 303.871094 C 207.941406 304.328125 207.765625 306.667969 207.675781 307.222656 C 207.589844 307.777344 207.789062 306.285156 207.65625 307.273438 C 207.523438 308.257812 207.351562 309.03125 206.871094 309.785156 C 206.230469 310.785156 205.257812 311.375 203.996094 311.335938 C 203.042969 311.308594 202.390625 311.011719 201.964844 310.78125 C 201.601562 310.582031 201.242188 310.246094 200.90625 309.703125 C 200.683594 309.34375 200.441406 308.699219 200.300781 307.738281 C 200.121094 306.503906 200.132812 305.492188 200.210938 304.703125 C 200.402344 302.695312 200.875 301.191406 201.675781 300.191406 C 202.5625 299.082031 203.648438 298.523438 204.941406 298.519531 M 206.898438 289.636719 L 206.277344 289.664062 C 199.46875 291.28125 194.765625 294.90625 192.375 300.628906 C 191.574219 302.550781 191.648438 303.945312 191.792969 305.710938 C 191.9375 307.476562 193.667969 309.207031 195.519531 314.207031 C 195.839844 315.070312 196.285156 316.03125 196.367188 316.683594 C 196.53125 317.972656 195.011719 318.925781 191.679688 322.945312 C 189.546875 325.515625 186.839844 328.097656 186.839844 328.097656 C 175.828125 338.371094 168.933594 344.109375 164.980469 347.527344 C 158.078125 353.492188 153.5 356.683594 151.121094 356.957031 C 147.777344 361.304688 145.507812 364.960938 144.371094 367.945312 C 143.363281 370.601562 142.835938 372.1875 142.878906 372.671875 C 143 374.023438 143.488281 374.601562 144.203125 374.496094 C 148.347656 373.878906 158.914062 366.007812 176.132812 351.085938 C 193.738281 335.824219 204.011719 325.710938 206.710938 320.460938 C 211.875 321.996094 214.839844 321.753906 216.078125 320.03125 C 217.21875 318.441406 218.035156 316.265625 217.707031 313.195312 C 217.597656 312.164062 217.472656 311.417969 216.804688 310.71875 C 215.722656 309.589844 214.355469 309.0625 213.183594 309.066406 C 214.765625 303.140625 213.777344 298.410156 212.449219 294.21875 C 211.589844 291.5 209.890625 289.929688 206.898438 289.636719 Z M 206.898438 289.636719 " fill-opacity="1" fill-rule="nonzero"/><g clip-path="url(#a83b927550)"><path fill="#ffffff" d="M 429.585938 154.8125 L 429.628906 154.511719 C 429.992188 152.101562 430.429688 150.277344 430.945312 149.039062 C 431.03125 148.726562 431.511719 147.886719 432.390625 146.519531 C 433.148438 145.453125 434.015625 144.46875 434.992188 143.578125 C 436.351562 142.195312 439.183594 140.457031 443.488281 138.359375 C 445.804688 137.109375 448.179688 136.226562 450.617188 135.710938 C 452.414062 135.367188 454.214844 135.40625 456.019531 135.832031 C 458.425781 136.492188 459.859375 136.980469 460.320312 137.292969 C 461.257812 137.730469 462.15625 138.238281 463.003906 138.8125 C 466.691406 141.265625 468.460938 144.394531 468.3125 148.203125 L 467.78125 150.726562 L 466.613281 153.132812 L 464.890625 155.398438 L 462.695312 157.492188 L 460.113281 159.394531 L 457.222656 161.074219 L 454.113281 162.507812 L 450.859375 163.671875 L 447.550781 164.53125 L 444.269531 165.066406 C 441.996094 165.304688 440.039062 165.3125 438.402344 165.097656 C 437.09375 164.929688 436.160156 164.71875 435.605469 164.46875 C 435.207031 164.175781 434.9375 163.722656 434.792969 163.109375 C 434.648438 162.496094 434.648438 161.90625 434.796875 161.347656 C 435.058594 160.742188 435.261719 160.4375 435.414062 160.433594 C 435.589844 160.269531 436.214844 159.988281 437.296875 159.589844 C 440.242188 158.835938 441.804688 158.386719 441.988281 158.238281 C 442.96875 157.820312 443.609375 157.394531 443.914062 156.957031 C 444.539062 156.3125 444.878906 155.175781 444.933594 153.542969 C 444.8125 152.136719 444.332031 151.226562 443.488281 150.824219 C 442.484375 150.339844 441.164062 150.324219 439.527344 150.773438 C 438.46875 151.058594 437.410156 151.441406 436.347656 151.917969 L 432.253906 153.984375 C 431.730469 154.214844 430.839844 154.492188 429.585938 154.8125 " fill-opacity="1" fill-rule="nonzero"/></g><path fill="#ffffff" d="M 499.527344 473.382812 L 499.527344 473.226562 C 499.449219 471.449219 499.839844 469.742188 500.703125 468.113281 C 501.761719 465.878906 503.195312 463.898438 505.007812 462.171875 C 505.601562 461.605469 506.226562 461.085938 506.882812 460.609375 L 507.882812 459.933594 L 508.917969 459.335938 L 513.515625 456.90625 C 515.863281 455.667969 518.28125 454.796875 520.777344 454.296875 C 524.460938 453.59375 528.363281 454.480469 532.488281 456.964844 C 536.523438 459.617188 538.441406 462.886719 538.253906 466.777344 L 537.722656 469.296875 L 536.554688 471.703125 L 534.832031 473.96875 L 532.636719 476.066406 L 530.050781 477.96875 L 527.164062 479.648438 L 524.050781 481.082031 L 520.800781 482.242188 L 517.492188 483.105469 L 514.210938 483.640625 C 511.789062 483.859375 509.980469 483.886719 508.777344 483.714844 C 507.574219 483.609375 506.5 483.386719 505.558594 483.054688 C 505.167969 482.796875 504.878906 482.398438 504.6875 481.855469 C 504.371094 480.566406 504.464844 479.71875 504.964844 479.308594 C 505.492188 478.8125 506.125 478.34375 506.867188 477.90625 L 511.550781 475.351562 L 512.601562 474.695312 C 513.269531 474.25 513.800781 473.773438 514.199219 473.265625 C 514.597656 472.761719 514.789062 472.207031 514.78125 471.609375 C 514.765625 470.707031 514.308594 469.988281 513.410156 469.460938 C 512.886719 469.214844 512.265625 469.097656 511.550781 469.105469 C 511.234375 468.992188 509.976562 469.214844 507.777344 469.773438 C 505.296875 470.53125 502.546875 471.734375 499.527344 473.382812 " fill-opacity="1" fill-rule="nonzero"/><path fill="#ffffff" d="M 506.25 513.277344 L 506.40625 513.175781 C 510.25 510.671875 512.269531 508.40625 512.460938 506.375 C 510.390625 503.363281 507 501.40625 502.28125 500.503906 C 498.699219 499.808594 495.109375 500.09375 491.5 501.359375 C 488.355469 502.628906 485.117188 504.925781 481.785156 508.242188 C 477.492188 513.007812 475.328125 517.597656 475.296875 522.007812 C 475.25 525.179688 475.691406 527.664062 476.613281 529.460938 C 477.34375 530.8125 477.699219 531.390625 477.679688 531.1875 C 477.878906 531.355469 478.113281 531.5 478.390625 531.625 C 479.867188 532.15625 480.648438 532.496094 480.738281 532.648438 C 481.050781 533.042969 481.144531 533.316406 481.015625 533.472656 C 480.640625 534.691406 479.96875 535.910156 478.992188 537.128906 C 477.417969 539.03125 474.539062 541.941406 470.359375 545.863281 L 469.019531 547.445312 C 468.226562 548.480469 467.792969 549.449219 467.722656 550.355469 L 468.019531 551.65625 C 469.105469 553.316406 470.40625 553.6875 471.921875 552.765625 L 473.019531 552.046875 L 476.734375 548.996094 C 483.5625 544.398438 487.253906 541.949219 487.816406 541.652344 C 493.0625 538.402344 496.546875 536.550781 498.273438 536.101562 C 499.863281 535.660156 501.578125 535.363281 503.410156 535.214844 L 514.273438 534.464844 C 515.960938 534.257812 517.457031 533.875 518.761719 533.316406 L 520.492188 532.265625 L 521.785156 530.789062 L 522.550781 528.8125 C 522.699219 528.574219 522.726562 527.585938 522.636719 525.84375 C 522.265625 522.574219 520.972656 520.402344 518.761719 519.328125 C 517.222656 519.117188 515.011719 519.285156 512.128906 519.824219 C 511.488281 519.847656 507.082031 520.972656 498.90625 523.199219 C 498.203125 523.410156 496.371094 523.726562 493.410156 524.144531 C 490.929688 524.476562 489.347656 524.167969 488.660156 523.214844 L 488.066406 521.835938 C 487.945312 521.058594 488.085938 520.285156 488.488281 519.511719 C 489.359375 517.933594 490.855469 516.542969 492.976562 515.34375 C 495.097656 514.140625 497.28125 513.375 499.53125 513.039062 L 501.460938 512.933594 C 503.28125 513.339844 504.878906 513.453125 506.25 513.277344 " fill-opacity="1" fill-rule="nonzero"/><path fill="#ffffff" d="M 623.3125 617.628906 L 611.984375 618.382812 L 600.660156 619.140625 L 623.3125 617.628906 " fill-opacity="1" fill-rule="nonzero"/></svg>